<?xml version="1.0" standalone="no"?>
<!DOCTYPE svg PUBLIC "-//W3C//DTD SVG 20010904//EN"
 "http://www.w3.org/TR/2001/REC-SVG-20010904/DTD/svg10.dtd">
<svg version="1.0" xmlns="http://www.w3.org/2000/svg"
 width="240.000000pt" height="240.000000pt" viewBox="0 0 240.000000 240.000000"
 preserveAspectRatio="xMidYMid meet">
<metadata>
Created by potrace 1.11, written by Peter Selinger 2001-2013
</metadata>
<g transform="translate(0.000000,240.000000) scale(0.100000,-0.100000)"
fill="#000000" stroke="none">
<path d="M963 2378 c-12 -12 -30 -45 -40 -73 -17 -46 -25 -53 -90 -89 -73 -39
-80 -47 -122 -149 -21 -49 -56 -73 -92 -62 -15 5 -19 16 -19 52 0 40 -2 44
-16 33 -23 -20 -62 -92 -64 -120 -5 -55 1 -79 31 -123 17 -26 28 -51 24 -57
-16 -26 8 -93 50 -136 41 -43 43 -48 48 -122 13 -158 72 -299 172 -406 14 -16
23 -32 18 -36 -4 -4 -35 -17 -68 -30 -77 -30 -206 -93 -249 -122 -92 -63 -133
-118 -156 -209 -11 -42 -14 -45 -67 -62 -128 -41 -233 -158 -233 -260 0 -38
50 -157 78 -185 9 -9 22 -29 29 -43 17 -39 104 -75 152 -62 28 7 43 55 25 81
-25 37 -8 53 52 50 47 -3 57 -8 86 -41 20 -23 44 -40 63 -42 17 -3 47 -10 67
-16 29 -9 44 -9 67 1 17 7 31 17 31 22 0 12 68 5 95 -10 11 -6 78 -22 148 -36
106 -20 133 -29 152 -50 36 -39 53 -41 195 -25 8 1 31 -1 50 -5 19 -4 53 -9
74 -11 22 -3 50 -12 62 -20 13 -8 40 -15 59 -15 29 0 44 8 74 39 30 31 43 38
67 35 16 -2 84 -7 152 -10 279 -14 415 41 477 194 25 60 28 79 28 187 0 98 -5
139 -27 223 -74 289 -177 425 -406 539 -113 56 -115 56 -208 84 -44 13 -72 26
-69 33 2 6 13 37 23 70 12 37 26 62 39 68 39 17 68 74 69 133 1 46 -4 59 -31
93 -30 37 -32 44 -29 107 8 179 -44 338 -137 420 -55 50 -138 95 -174 95 -12
0 -41 15 -66 34 -65 50 -77 54 -127 48 -54 -7 -105 -6 -185 3 -55 6 -62 5 -82
-17z"/>
<path d="M315 1480 c18 -60 101 -235 167 -349 58 -101 55 -98 70 -83 7 7 20
12 30 12 10 0 18 2 18 4 0 23 -125 223 -213 341 -75 101 -81 107 -72 75z"/>
<path d="M618 1388 c-10 -53 6 -262 22 -287 7 -12 13 -12 39 -1 34 14 33 12
16 101 -4 20 -21 75 -40 123 -24 66 -33 82 -37 64z"/>
<path d="M185 1199 c119 -123 162 -163 225 -211 l35 -26 27 23 28 24 -53 44
c-70 60 -271 187 -294 187 -4 0 11 -18 32 -41z"/>
<path d="M150 944 c84 -41 230 -98 235 -91 2 1 10 16 19 34 l16 31 -48 15
c-77 25 -176 45 -262 53 l-55 5 95 -47z"/>
<path d="M328 795 c-2 -1 -23 -5 -48 -7 -25 -3 -83 -18 -130 -33 l-85 -29 50
-7 c44 -6 234 -3 241 3 1 2 4 18 6 37 2 26 -1 34 -14 36 -9 2 -18 2 -20 0z"/>
</g>
</svg>
